<?xml version="1.0" encoding="UTF-8" standalone="no"?>
<svg
   xmlns:dc="http://purl.org/dc/elements/1.1/"
   xmlns:cc="http://creativecommons.org/ns#"
   xmlns:rdf="http://www.w3.org/1999/02/22-rdf-syntax-ns#"
   xmlns:svg="http://www.w3.org/2000/svg"
   xmlns="http://www.w3.org/2000/svg"
   id="svg4521"
   version="1.1"
   width="201.3257mm"
   height="49.633801mm"
   viewBox="0 0 713.35878 175.8678">
  <metadata
     id="metadata4527">
    <rdf:RDF>
      <cc:Work
         rdf:about="">
        <dc:format>image/svg+xml</dc:format>
        <dc:type
           rdf:resource="http://purl.org/dc/dcmitype/StillImage" />
        <dc:title></dc:title>
      </cc:Work>
    </rdf:RDF>
  </metadata>
  <defs
     id="defs4525" />
  <path
     style="fill:#3088d4"
     id="path4517"
     d="m 160.55476,70.436542 c -2.4125,-12.40625 -21.5975,-25.9825 -43.63375,-28.61375 -11.49125,-1.3725 -22.80375,-2.63125 -34.8675,-2.07875 -19.73,0.90375 -35.2975,4.71 -35.2975,4.71 0,-1.92125 0.11875,-3.75 0.355,-5.46 2.565,-19.47 19.3075,-20.6375 35.16625,-21.18125 16.00625,-0.5475 30.2575,3.9475 30.2575,3.9475 l 0.65875,-14.4725 c 0,0 -11.19625,-6.01125 -31.14,-7.11624999 -10.99875,-0.605 -24.65375,0.27625 -40.56,4.48499999 -34.495,9.13125 -40.4275,45.90125 -41.335,83.21125 -0.2775,11.0775 -0.10625,21.523748 -0.10625,30.258748 0,38.1525 24.99625,49.335 24.99625,49.335 12.60375,5.78875 34.23125,8.2225 56.715,8.40625 h 0.5525 c 22.48375,-0.18375 44.125,-2.6175 56.72875,-8.40625 0,0 24.99625,-11.1825 24.99625,-49.335 0,0 0.3125,-28.147498 -3.48625,-47.689998" />
  <path
     id="path4519-3"
     d="m 34.657511,48.494 c 0,-5.55375 4.5025,-10.055 10.055,-10.055 5.553751,0 10.055001,4.50125 10.055001,10.055 0,5.5525 -4.50125,10.055 -10.055001,10.055 -5.5525,0 -10.055,-4.5025 -10.055,-10.055 M 178.86476,60.69975 v 46.195 l 0.92725,-25.03559 531.56265,-3.69259 v 0 l 3.2679,-23.40375 c 1.10009,-7.87856 -622.5228,-2.15807 -622.5228,7.29443 v 44.8375 H 73.798511 v -46.195 c 0,-9.44125 2.40375,-16.94375 7.232501,-22.495 4.979999,-5.55 11.501248,-8.395003 19.594998,-8.395003 9.36625,0 16.45875,3.598753 21.14625,10.798753 l 4.56,7.6425 4.55875,-7.6425 c 4.68874,-7.2 11.77999,-10.798753 21.14749,-10.798753 8.09375,0 14.61375,2.845003 19.59375,8.395003 4.82876,5.55125 7.23251,13.05375 7.23251,22.495 m 63.04799,22.96387 c 3.77625,-3.99 5.595,-9.015 5.595,-15.07499 0,-6.06 -1.81875,-11.08501 -5.595,-14.9275 -3.63624,-3.99125 -8.25375,-5.91125 -13.84875,-5.91125 -5.59625,0 -10.2125,1.92 -13.84875,5.91125 -3.6375,3.84249 -5.45624,8.8675 -5.45624,14.9275 0,6.05999 1.81874,11.08499 5.45624,15.07499 3.63625,3.8425 8.2525,5.76375 13.84875,5.76375 5.595,0 10.21251,-1.92125 13.84875,-5.76375 m 5.595,-52.02499 H 265.554 v 73.89999 h -18.04625 v -8.72125 c -5.45499,7.24251 -13.01,10.79 -22.80125,10.79 -9.3725,0 -17.34624,-3.695 -24.06125,-11.23374 -6.57375,-7.53751 -9.93124,-16.84876 -9.93124,-27.785 0,-10.78876 3.35749,-20.10125 9.93124,-27.63875 6.71501,-7.5375 14.68875,-11.380003 24.06125,-11.380003 9.79125,0 17.34626,3.547503 22.80125,10.788753 z m 78.76175,35.61999 c 5.31499,3.99 7.97374,9.60625 7.83375,16.7 0,7.53875 -2.65875,13.45001 -8.11376,17.58876 -5.45625,3.99124 -12.03,6.06 -20.00374,6.06 -14.40875,0 -24.20125,-5.9125 -29.3775,-17.58876 l 15.66875,-9.31 c 2.0975,6.35375 6.71375,9.60625 13.70875,9.60625 6.43375,0 9.6525,-2.07 9.6525,-6.35625 0,-3.10375 -4.1975,-5.91125 -12.73,-8.1275 -3.21875,-0.8875 -5.87625,-1.77374 -7.97375,-2.51375 l -7.55375,-4.1375 -7.83375,-16.10999 7.55375,-17.145 19.025,-6.355003 26.5775,15.666253 -15.38625,8.8675 -11.19125,-7.53625 -8.11375,6.05875 12.72999,8.12875 15.52751,6.50374 m 57.35713,-17.29249 h -15.80751 v 30.74249 c 0,3.695 1.4,5.91125 4.0575,6.945 1.95876,0.74 5.87501,0.8875 11.75001,0.59125 v 17.29376 c -12.16875,1.4775 -20.98252,0.295 -26.15875,-3.69625 -5.17501,-3.84251 -7.69377,-10.93626 -7.69377,-21.13376 V 49.96613 h -12.16999 v -18.3275 h 12.16999 V 16.711127 l 18.04501,-5.76375 V 31.63863 h 15.80751 z m 57.49824,33.25437 c 3.6375,-3.84375 7.52003,-9.09369 5.45499,-14.6325 l -5.45499,-14.63125 -13.57,-5.76375 -13.56875,5.76375 -5.31626,14.63125 c -1.96878,5.41841 1.81875,10.6425 5.31626,14.6325 3.6375,3.8425 8.11375,5.76375 13.56875,5.76375 5.45625,0 9.93251,-1.92125 13.57,-5.76375 M 401.25612,96.37425 C 394.12236,88.83675 386.6451,78.93395 390.62486,68.588 l 10.63126,-27.6375 26.29875,-11.380003 26.3,11.380003 10.77126,27.6375 c 3.97173,10.19089 -3.63626,20.24875 -10.77126,27.78625 -7.13499,7.53875 -15.8075,11.2325 -26.3,11.2325 -10.49124,0 -19.165,-3.69375 -26.29875,-11.2325 M 524.92124,83.66362 c 3.6375,-3.99 7.53499,-9.38314 5.455,-15.07499 l -5.455,-14.9275 -13.84875,-5.91125 -13.98874,5.91125 -5.45625,14.9275 c -2.08041,5.69169 1.81999,11.08499 5.45625,15.07499 3.77625,3.8425 8.53249,5.76375 13.98874,5.76375 5.595,0 10.2125,-1.92125 13.84875,-5.76375 m 5.455,-81.584993 h 18.04625 V 105.53862 h -18.04625 v -8.72125 c -5.315,7.24251 -12.87,10.79 -22.66124,10.79 -9.37251,0 -17.48501,-3.695 -24.20001,-11.23374 -6.575,-7.53751 -13.63106,-17.49316 -9.9325,-27.785 l 9.9325,-27.63875 24.20001,-11.380003 22.66124,10.788753 z m 81.42,81.141873 c 3.63624,-3.84375 5.45499,-8.72125 5.45499,-14.6325 0,-5.91125 -1.81875,-10.78875 -5.45499,-14.63125 -3.6375,-3.84375 -8.11375,-5.76375 -13.57,-5.76375 -5.455,0 -9.9325,1.92 -13.56875,5.76375 -3.49875,3.99 -5.31626,8.8675 -5.31626,14.63125 0,5.765 1.81751,10.6425 5.31626,14.6325 3.63625,3.8425 8.11375,5.76375 13.56875,5.76375 5.45625,0 9.9325,-1.92125 13.57,-5.76375 m -39.86876,13.15375 c -7.13499,-7.5375 -14.611,-17.44029 -10.63125,-27.78625 l 10.63125,-27.6375 c 7.13501,-7.5375 15.94751,-11.380003 26.29876,-11.380003 10.3525,0 19.165,3.842503 26.29999,11.380003 7.13501,7.5375 10.77126,16.84875 10.77126,27.6375 0,10.9375 -3.63625,20.24875 -10.77126,27.78625 -7.13499,7.53875 -15.80749,11.2325 -26.29999,11.2325 -10.49125,0 -19.16375,-3.69375 -26.29876,-11.2325 M 713.35873,60.16388 v 45.37374 H 695.31248 V 62.52888 c 0,-4.87751 -1.25874,-8.5725 -3.77625,-11.38 -2.37875,-2.5125 -5.73624,-3.84375 -10.0725,-3.84375 -10.2125,0 -15.3875,6.06 -15.3875,18.32749 v 39.905 H 648.02999 V 31.63888 h 18.04624 v 8.27625 c 4.33625,-6.94625 11.19,-10.345003 20.84375,-10.345003 7.69375,0 13.98876,2.660003 18.885,8.128753 5.035,5.46875 7.55375,12.85875 7.55375,22.465"
     style="fill:#ffffff;stroke-width:0.99999994" />
</svg>
